<svg width="931" height="908" viewBox="0 0 931 908" fill="none" xmlns="http://www.w3.org/2000/svg">
<path d="M0 0.320596C78.8851 0.265937 157.77 0.211277 239.046 0.154961C276.352 0.118771 276.352 0.118771 314.412 0.081849C344.878 0.0698793 344.878 0.0698793 359.158 0.0676552C369.092 0.0651949 379.025 0.0555209 388.959 0.0408042C400.442 0.023817 411.926 0.01629 423.409 0.0199491C429.271 0.0215311 435.132 0.0191987 440.994 0.00465717C474.649 -0.0746874 507.895 0.807702 541.125 6.69754C543.177 7.05132 545.228 7.40501 547.28 7.75864C630.049 22.209 708.372 59.834 771.308 115.603C772.545 116.692 773.782 117.782 775.056 118.905C792.19 134.304 808.835 150.407 822.994 168.606C824.376 170.288 825.764 171.967 827.156 173.642C835.717 183.966 843.608 194.386 850.824 205.708C851.913 207.334 853.006 208.957 854.101 210.579C891.587 266.494 914.731 330.197 925.04 396.519C925.259 397.892 925.477 399.265 925.703 400.679C933.079 449.086 933.806 505.258 921.064 552.879C920.431 556.187 919.824 559.5 919.242 562.817C903.541 647.234 858.746 724.321 800.795 786.672C799.998 787.534 799.2 788.396 798.379 789.284C792.773 795.249 786.832 800.682 780.585 805.969C778.573 800.705 779.94 796.581 781.263 791.238C781.488 790.319 781.712 789.4 781.944 788.453C782.423 786.502 782.908 784.553 783.398 782.605C784.132 779.692 784.849 776.775 785.563 773.856C786.034 771.948 786.505 770.04 786.978 768.132C787.187 767.288 787.396 766.443 787.611 765.574C789.08 759.749 790.709 753.98 792.382 748.21C795.213 738.359 797.705 728.439 800.133 718.483C800.588 716.629 801.043 714.775 801.498 712.921C802.684 708.09 803.866 703.258 805.048 698.425C806.472 692.598 807.902 686.772 809.331 680.946C810.445 676.404 811.559 671.861 812.67 667.318C814.821 658.531 816.981 649.747 819.163 640.967C819.579 639.289 819.996 637.611 820.425 635.882C821.637 631.181 822.951 626.523 824.319 621.866C826.647 613.885 828.602 605.854 830.423 597.745C831.64 592.386 833.091 587.213 834.921 582.03C833.453 581.484 833.453 581.484 831.954 580.926C828.554 579.49 825.797 577.914 822.753 575.846C821.702 575.137 820.652 574.428 819.569 573.697C817.882 572.544 817.882 572.544 816.16 571.368C814.971 570.563 813.781 569.757 812.556 568.928C808.742 566.345 804.934 563.753 801.127 561.16C797.411 558.638 793.694 556.118 789.977 553.598C787.487 551.91 784.998 550.222 782.509 548.533C769.55 539.744 756.519 531.067 743.477 522.402C739.771 519.937 736.064 517.471 732.358 515.005C731.499 514.434 730.64 513.863 729.755 513.274C714.463 503.101 699.182 492.914 684.006 482.567C648.202 458.163 612.27 433.962 576.053 410.175C555.101 396.412 534.298 382.442 513.568 368.347C507.552 364.262 501.515 360.208 495.465 356.172C494.649 355.627 493.833 355.082 492.993 354.521C487.317 350.742 481.588 347.076 475.773 343.516C475.629 344.357 475.486 345.198 475.338 346.064C473.554 356.23 471.35 366.269 468.981 376.312C468.768 377.217 468.556 378.123 468.337 379.056C464.83 393.958 461.11 408.805 457.338 423.642C457.107 424.548 456.877 425.454 456.64 426.388C454.298 435.593 451.948 444.797 449.585 453.997C445.122 471.376 440.743 488.758 436.842 506.273C434.579 516.404 431.91 526.39 429.085 536.377C426.406 546.059 424.116 555.796 421.892 565.591C418.692 579.647 415.258 593.632 411.699 607.6C411.446 608.593 411.193 609.585 410.933 610.607C409.111 617.757 407.281 624.905 405.45 632.052C403.359 640.215 401.272 648.379 399.192 656.545C398.942 657.526 398.692 658.506 398.434 659.517C395.134 672.488 392.001 685.484 389.098 698.551C387.345 706.417 385.36 714.193 383.235 721.968C379.697 735.046 376.508 748.22 373.222 761.364C372.35 764.85 371.477 768.334 370.601 771.819C365.805 790.9 361.126 809.997 356.75 829.179C353.52 843.289 350.05 857.335 346.526 871.374C345.454 875.645 344.39 879.917 343.326 884.19C342.642 886.923 341.958 889.656 341.273 892.389C340.799 894.293 340.799 894.293 340.315 896.236C340.023 897.398 339.73 898.56 339.428 899.757C339.045 901.287 339.045 901.287 338.654 902.848C337.944 905.35 337.944 905.35 336.619 908C326.123 908 315.627 908 304.812 908C305.696 900.049 306.587 893.528 308.597 885.976C308.959 884.597 308.959 884.597 309.328 883.189C309.843 881.232 310.36 879.276 310.881 877.321C312.257 872.155 313.603 866.982 314.949 861.809C315.218 860.776 315.487 859.743 315.764 858.678C318.154 849.453 320.347 840.191 322.455 830.897C322.776 829.485 323.097 828.073 323.427 826.618C324.027 823.979 324.625 821.341 325.224 818.702C327.854 807.231 330.846 795.85 333.813 784.462C334.749 780.865 335.684 777.268 336.619 773.67C336.854 772.766 337.089 771.862 337.331 770.931C340.243 759.717 343.005 748.495 345.415 737.161C346.822 730.645 348.529 724.257 350.369 717.851C353.531 706.816 356.113 695.68 358.65 684.487C362.519 667.492 366.8 650.604 371.076 633.709C373.531 623.992 375.964 614.272 378.277 604.521C381.36 591.53 384.449 578.6 388.227 565.793C393.451 547.308 397.816 528.556 401.906 509.79C403.641 501.946 405.777 494.289 408.184 486.625C407.323 486.406 406.461 486.187 405.574 485.962C395.874 483.417 386.532 480.224 377.123 476.769C359.898 470.525 342.553 464.681 325.153 458.946C324.174 458.623 323.196 458.299 322.187 457.966C320.381 457.37 318.574 456.776 316.766 456.184C309.178 453.681 301.733 450.932 294.21 448.197C284.152 444.699 274.093 441.201 263.729 437.597C263.729 592.83 263.729 748.063 263.729 908C254.982 908 246.235 908 237.224 908C236.786 792.996 236.349 677.993 235.898 559.504C216.53 556.083 216.53 556.083 197.126 552.889C189.802 551.698 189.802 551.698 186.863 550.229C182.974 549.593 179.091 549.009 175.19 548.458C162.061 546.548 148.993 544.366 135.928 542.063C132.368 541.436 128.807 540.817 125.246 540.197C122.964 539.797 120.682 539.397 118.4 538.996C117.344 538.813 116.288 538.629 115.2 538.44C111.14 537.721 107.289 536.958 103.371 535.653C103.606 536.601 103.84 537.549 104.081 538.525C106.325 547.602 108.566 556.68 110.804 565.759C111.953 570.423 113.104 575.086 114.257 579.749C118.847 598.314 123.402 616.88 127.582 635.544C130.091 646.707 132.853 657.803 135.662 668.894C137.117 674.643 138.559 680.396 140.003 686.148C140.281 687.256 140.559 688.365 140.846 689.507C144.63 704.596 148.22 719.725 151.681 734.891C152.364 737.879 153.048 740.868 153.732 743.856C154.066 745.317 154.4 746.779 154.744 748.285C157.001 758.077 159.477 767.788 162.1 777.487C164.167 785.222 165.776 792.97 167.27 800.837C168.271 805.777 169.426 810.639 170.665 815.524C171.138 817.396 171.61 819.268 172.083 821.14C172.456 822.611 172.456 822.61 172.836 824.111C174.18 829.419 175.51 834.732 176.841 840.043C177.403 842.287 177.966 844.531 178.529 846.775C178.81 847.898 179.092 849.021 179.381 850.178C179.951 852.45 180.522 854.721 181.092 856.993C184.092 868.932 187.067 880.877 189.928 892.85C190.155 893.788 190.383 894.727 190.617 895.694C191.508 899.459 192.164 902.789 192.164 906.675C128.75 906.675 65.3359 906.675 0 906.675C0 607.578 0 308.481 0 0.320596Z" fill="black"/>
</svg>
