<svg width="1258" height="1258" viewBox="0 0 1258 1258" fill="none" xmlns="http://www.w3.org/2000/svg">
<rect width="1258" height="1258" rx="100" fill="black"/>
<path d="M164 175.321C242.885 175.266 321.77 175.211 403.046 175.155C440.352 175.119 440.352 175.119 478.412 175.082C508.878 175.07 508.878 175.07 523.158 175.068C533.092 175.065 543.025 175.056 552.959 175.041C564.442 175.024 575.926 175.016 587.409 175.02C593.271 175.022 599.132 175.019 604.994 175.005C638.649 174.925 671.895 175.808 705.125 181.698C707.177 182.051 709.228 182.405 711.28 182.759C794.049 197.209 872.372 234.834 935.308 290.603C936.545 291.692 937.782 292.782 939.056 293.905C956.19 309.304 972.835 325.407 986.994 343.606C988.376 345.288 989.764 346.967 991.156 348.642C999.717 358.966 1007.61 369.386 1014.82 380.708C1015.91 382.334 1017.01 383.957 1018.1 385.579C1055.59 441.494 1078.73 505.197 1089.04 571.519C1089.26 572.892 1089.48 574.265 1089.7 575.679C1097.08 624.086 1097.81 680.258 1085.06 727.879C1084.43 731.187 1083.82 734.5 1083.24 737.817C1067.54 822.234 1022.75 899.321 964.795 961.672C963.998 962.534 963.2 963.396 962.379 964.284C956.773 970.249 950.832 975.682 944.585 980.969C942.573 975.705 943.94 971.581 945.263 966.238C945.488 965.319 945.712 964.4 945.944 963.453C946.423 961.502 946.908 959.553 947.398 957.605C948.132 954.692 948.849 951.775 949.563 948.856C950.034 946.948 950.505 945.04 950.978 943.132C951.187 942.288 951.396 941.443 951.611 940.574C953.08 934.749 954.709 928.98 956.382 923.21C959.213 913.359 961.705 903.439 964.133 893.483C964.588 891.629 965.043 889.775 965.498 887.921C966.684 883.09 967.866 878.258 969.048 873.425C970.472 867.598 971.902 861.772 973.331 855.946C974.445 851.404 975.559 846.861 976.67 842.318C978.821 833.531 980.981 824.747 983.163 815.967C983.579 814.289 983.996 812.611 984.425 810.882C985.637 806.181 986.951 801.523 988.319 796.866C990.647 788.885 992.602 780.854 994.423 772.745C995.64 767.386 997.091 762.213 998.921 757.03C997.453 756.484 997.453 756.484 995.954 755.926C992.554 754.49 989.797 752.914 986.753 750.846C985.702 750.137 984.652 749.428 983.569 748.697C981.882 747.544 981.882 747.544 980.16 746.368C978.971 745.563 977.781 744.757 976.556 743.928C972.742 741.345 968.934 738.753 965.127 736.16C961.411 733.638 957.694 731.118 953.977 728.598C951.487 726.91 948.998 725.222 946.509 723.533C933.55 714.744 920.519 706.067 907.477 697.402C903.771 694.937 900.064 692.471 896.358 690.005C895.499 689.434 894.64 688.863 893.755 688.274C878.463 678.101 863.182 667.914 848.006 657.567C812.202 633.163 776.27 608.962 740.053 585.175C719.101 571.412 698.298 557.442 677.568 543.347C671.552 539.262 665.515 535.208 659.465 531.172C658.649 530.627 657.833 530.082 656.993 529.521C651.317 525.742 645.588 522.076 639.773 518.516C639.629 519.357 639.486 520.198 639.338 521.064C637.554 531.23 635.35 541.269 632.981 551.312C632.768 552.217 632.556 553.123 632.337 554.056C628.83 568.958 625.11 583.805 621.338 598.642C621.107 599.548 620.877 600.454 620.64 601.388C618.298 610.593 615.948 619.797 613.585 628.997C609.122 646.376 604.743 663.758 600.842 681.273C598.579 691.404 595.91 701.39 593.085 711.377C590.406 721.059 588.116 730.796 585.892 740.591C582.692 754.647 579.258 768.632 575.699 782.6C575.446 783.593 575.193 784.585 574.933 785.607C573.111 792.757 571.281 799.905 569.45 807.052C567.359 815.215 565.272 823.379 563.192 831.545C562.942 832.526 562.692 833.506 562.434 834.517C559.134 847.488 556.001 860.484 553.098 873.551C551.345 881.417 549.36 889.193 547.235 896.968C543.697 910.046 540.508 923.22 537.222 936.364C536.35 939.85 535.477 943.334 534.601 946.819C529.805 965.9 525.126 984.997 520.75 1004.18C517.52 1018.29 514.05 1032.34 510.526 1046.37C509.454 1050.64 508.39 1054.92 507.326 1059.19C506.642 1061.92 505.958 1064.66 505.273 1067.39C504.799 1069.29 504.799 1069.29 504.315 1071.24C504.023 1072.4 503.73 1073.56 503.428 1074.76C503.045 1076.29 503.045 1076.29 502.654 1077.85C501.944 1080.35 501.944 1080.35 500.619 1083C490.123 1083 479.627 1083 468.812 1083C469.696 1075.05 470.587 1068.53 472.597 1060.98C472.959 1059.6 472.959 1059.6 473.328 1058.19C473.843 1056.23 474.36 1054.28 474.881 1052.32C476.257 1047.16 477.603 1041.98 478.949 1036.81C479.218 1035.78 479.487 1034.74 479.764 1033.68C482.154 1024.45 484.347 1015.19 486.455 1005.9C486.776 1004.48 487.097 1003.07 487.427 1001.62C488.027 998.979 488.625 996.341 489.224 993.702C491.854 982.231 494.846 970.85 497.813 959.462C498.749 955.865 499.684 952.268 500.619 948.67C500.854 947.766 501.089 946.862 501.331 945.931C504.243 934.717 507.005 923.495 509.415 912.161C510.822 905.645 512.529 899.257 514.369 892.851C517.531 881.816 520.113 870.68 522.65 859.487C526.519 842.492 530.8 825.604 535.076 808.709C537.531 798.992 539.964 789.272 542.277 779.521C545.36 766.53 548.449 753.6 552.227 740.793C557.451 722.308 561.816 703.556 565.906 684.79C567.641 676.946 569.777 669.289 572.184 661.625C571.323 661.406 570.461 661.187 569.574 660.962C559.874 658.417 550.532 655.224 541.123 651.769C523.898 645.525 506.553 639.681 489.153 633.946C488.174 633.623 487.196 633.299 486.187 632.966C484.381 632.37 482.574 631.776 480.766 631.184C473.178 628.681 465.733 625.932 458.21 623.197C448.152 619.699 438.093 616.201 427.729 612.597C427.729 767.83 427.729 923.063 427.729 1083C418.982 1083 410.235 1083 401.224 1083C400.786 967.996 400.349 852.993 399.898 734.504C380.53 731.083 380.53 731.083 361.126 727.889C353.802 726.698 353.802 726.698 350.863 725.229C346.974 724.593 343.091 724.009 339.19 723.458C326.061 721.548 312.993 719.366 299.928 717.063C296.368 716.436 292.807 715.817 289.246 715.197C286.964 714.797 284.682 714.397 282.4 713.996C281.344 713.813 280.288 713.629 279.2 713.44C275.14 712.721 271.289 711.958 267.371 710.653C267.606 711.601 267.84 712.549 268.081 713.525C270.325 722.602 272.566 731.68 274.804 740.759C275.953 745.423 277.104 750.086 278.257 754.749C282.847 773.314 287.402 791.88 291.582 810.544C294.091 821.707 296.853 832.803 299.662 843.894C301.117 849.643 302.559 855.396 304.003 861.148C304.281 862.256 304.559 863.365 304.846 864.507C308.63 879.596 312.22 894.725 315.681 909.891C316.364 912.879 317.048 915.868 317.732 918.856C318.066 920.317 318.4 921.779 318.744 923.285C321.001 933.077 323.477 942.788 326.1 952.487C328.167 960.222 329.776 967.97 331.27 975.837C332.271 980.777 333.426 985.639 334.665 990.524C335.138 992.396 335.61 994.268 336.083 996.14C336.456 997.611 336.456 997.61 336.836 999.111C338.18 1004.42 339.51 1009.73 340.841 1015.04C341.403 1017.29 341.966 1019.53 342.529 1021.77C342.81 1022.9 343.092 1024.02 343.381 1025.18C343.951 1027.45 344.522 1029.72 345.092 1031.99C348.092 1043.93 351.067 1055.88 353.928 1067.85C354.155 1068.79 354.383 1069.73 354.617 1070.69C355.508 1074.46 356.164 1077.79 356.164 1081.67C292.75 1081.67 229.336 1081.67 164 1081.67C164 782.578 164 483.481 164 175.321Z" fill="white"/>
</svg>
